<?xml version="1.0" encoding="utf-8"?>
<svg xmlns="http://www.w3.org/2000/svg" style="margin: auto; background: rgb(35, 13, 103); display: block; shape-rendering: auto;" width="286" height="369" preserveAspectRatio="xMidYMid">
<style type="text/css">
  text {
    text-anchor: middle; font-size: 96px; opacity: 0;
  }
</style>
<g style="transform-origin:143px 184.5px;transform:scale(1)">
<g transform="translate(143,184.5)">
  <g transform="translate(0,0)"><g class="path" style="transform: scale(0.91); transform-origin: -66.62px -4.8924px; animation: 1s linear -0.528s infinite normal forwards running breath-18705ce0-d1a4-4b8d-b559-0d782b2d579e;"><path d="M8.45 0L8.45-65.47L16.51-65.47L16.51-37.15L49.63-37.15L49.63-65.47L57.70-65.47L57.70 0L49.63 0L49.63-29.95L16.51-29.95L16.51 0L8.45 0" fill="#51cacc" stroke="none" stroke-width="none" transform="translate(-99.69497680664062,27.842595825195314)" style="fill: rgb(81, 202, 204);"></path></g><g class="path" style="transform: scale(0.91); transform-origin: -9.69498px 3.8426px; animation: 1s linear -0.396s infinite normal forwards running breath-18705ce0-d1a4-4b8d-b559-0d782b2d579e;"><path d="M106.56-7.58L108-1.15L108-1.15Q105.79-0.48 103.44 0L103.44 0L103.44 0Q101.09 0.48 98.26 0.86L98.26 0.86L98.26 0.86Q95.42 1.25 92.35 1.25L92.35 1.25L92.35 1.25Q87.55 1.25 83.42-0.10L83.42-0.10L83.42-0.10Q79.30-1.44 76.22-4.42L76.22-4.42L76.22-4.42Q73.15-7.39 71.38-12.14L71.38-12.14L71.38-12.14Q69.60-16.90 69.60-23.81L69.60-23.81L69.60-23.81Q69.60-30.05 71.33-34.80L71.33-34.80L71.33-34.80Q73.06-39.55 76.08-42.77L76.08-42.77L76.08-42.77Q79.10-45.98 83.18-47.62L83.18-47.62L83.18-47.62Q87.26-49.25 92.06-49.25L92.06-49.25L92.06-49.25Q96.77-49.25 100.22-47.42L100.22-47.42L100.22-47.42Q103.68-45.60 105.94-42.48L105.94-42.48L105.94-42.48Q108.19-39.36 109.30-35.18L109.30-35.18L109.30-35.18Q110.40-31.01 110.40-26.40L110.40-26.40L108.96-22.18L77.95-22.18L77.95-22.18Q77.95-19.20 78.72-16.22L78.72-16.22L78.72-16.22Q79.49-13.25 81.36-10.85L81.36-10.85L81.36-10.85Q83.23-8.45 86.26-6.96L86.26-6.96L86.26-6.96Q89.28-5.47 93.79-5.47L93.79-5.47L93.79-5.47Q96.67-5.47 99.07-5.81L99.07-5.81L99.07-5.81Q101.47-6.14 103.25-6.58L103.25-6.58L103.25-6.58Q105.02-7.01 106.56-7.58L106.56-7.58zM78.24-28.32L102.43-28.32L102.43-28.32Q102.43-28.99 102.14-31.30L102.14-31.30L102.14-31.30Q101.86-33.60 100.80-36.10L100.80-36.10L100.80-36.10Q99.74-38.59 97.54-40.56L97.54-40.56L97.54-40.56Q95.33-42.53 91.68-42.53L91.68-42.53L91.68-42.53Q87.65-42.53 85.06-40.85L85.06-40.85L85.06-40.85Q82.46-39.17 80.93-36.86L80.93-36.86L80.93-36.86Q79.39-34.56 78.82-32.16L78.82-32.16L78.82-32.16Q78.24-29.76 78.24-28.32L78.24-28.32" fill="#51cacc" stroke="none" stroke-width="none" transform="translate(-99.69497680664062,27.842595825195314)" style="fill: rgb(81, 202, 204);"></path></g><g class="path" style="transform: scale(0.91); transform-origin: 25.005px -8.5424px; animation: 1s linear -0.264s infinite normal forwards running breath-18705ce0-d1a4-4b8d-b559-0d782b2d579e;"><path d="M120.86 0L120.86-71.90L128.54-72.77L128.54 0L120.86 0" fill="#51cacc" stroke="none" stroke-width="none" transform="translate(-99.69497680664062,27.842595825195314)" style="fill: rgb(81, 202, 204);"></path></g><g class="path" style="transform: scale(0.91); transform-origin: 46.515px -8.5424px; animation: 1s linear -0.132s infinite normal forwards running breath-18705ce0-d1a4-4b8d-b559-0d782b2d579e;"><path d="M142.37 0L142.37-71.90L150.05-72.77L150.05 0L142.37 0" fill="#51cacc" stroke="none" stroke-width="none" transform="translate(-99.69497680664062,27.842595825195314)" style="fill: rgb(81, 202, 204);"></path></g><g class="path" style="transform: scale(0.91); transform-origin: 84.815px 3.8426px; animation: 1s linear 0s infinite normal forwards running breath-18705ce0-d1a4-4b8d-b559-0d782b2d579e;"><path d="M169.34-23.90L169.34-23.90L169.34-23.90Q169.34-14.59 173.52-10.03L173.52-10.03L173.52-10.03Q177.70-5.47 184.80-5.47L184.80-5.47L184.80-5.47Q191.81-5.47 195.74-9.98L195.74-9.98L195.74-9.98Q199.68-14.50 199.68-23.52L199.68-23.52L199.68-23.52Q199.68-33.12 195.50-37.82L195.50-37.82L195.50-37.82Q191.33-42.53 184.13-42.53L184.13-42.53L184.13-42.53Q176.93-42.53 173.14-37.87L173.14-37.87L173.14-37.87Q169.34-33.22 169.34-23.90zM161.18-24L161.18-24L161.18-24Q161.18-31.30 163.49-36.14L163.49-36.14L163.49-36.14Q165.79-40.99 169.34-43.92L169.34-43.92L169.34-43.92Q172.90-46.85 176.98-48.05L176.98-48.05L176.98-48.05Q181.06-49.25 184.70-49.25L184.70-49.25L184.70-49.25Q188.16-49.25 192.24-48.14L192.24-48.14L192.24-48.14Q196.32-47.04 199.78-44.21L199.78-44.21L199.78-44.21Q203.23-41.38 205.54-36.62L205.54-36.62L205.54-36.62Q207.84-31.87 207.84-24.58L207.84-24.58L207.84-24.58Q207.84-16.99 205.49-12L205.49-12L205.49-12Q203.14-7.01 199.58-4.08L199.58-4.08L199.58-4.08Q196.03-1.15 191.90 0.05L191.90 0.05L191.90 0.05Q187.78 1.25 184.22 1.25L184.22 1.25L184.22 1.25Q180.58 1.25 176.54 0.10L176.54 0.10L176.54 0.10Q172.51-1.06 169.10-3.89L169.10-3.89L169.10-3.89Q165.70-6.72 163.44-11.62L163.44-11.62L163.44-11.62Q161.18-16.51 161.18-24" fill="#51cacc" stroke="none" stroke-width="none" transform="translate(-99.69497680664062,27.842595825195314)" style="fill: rgb(81, 202, 204);"></path></g></g>
</g>
</g>
<style id="breath-18705ce0-d1a4-4b8d-b559-0d782b2d579e" data-anikit="">@keyframes breath-18705ce0-d1a4-4b8d-b559-0d782b2d579e
{
  0% {
    animation-timing-function: cubic-bezier(0.9647,0.2413,-0.0705,0.7911);
    transform: scale(0.9099999999999999);
  }
  51% {
    animation-timing-function: cubic-bezier(0.9226,0.2631,-0.0308,0.7628);
    transform: scale(1.02994);
  }
  100% {
    transform: scale(0.9099999999999999);
  }
}</style></svg>