<?xml version="1.0" encoding="utf-8"?>
<svg xmlns="http://www.w3.org/2000/svg" style="margin: auto; background: rgb(35, 13, 103); display: block; shape-rendering: auto;" width="286" height="369" preserveAspectRatio="xMidYMid">
<style type="text/css">
  text {
    text-anchor: middle; font-size: 96px; opacity: 0;
  }
</style>
<g style="transform-origin:143px 184.5px;transform:scale(1)">
<g transform="translate(143,184.5)">
  <g transform="translate(0,0)"><g class="path" style="transform: scale(0.91); transform-origin: -86.88px -5.89506px; animation: 1s linear -0.565714s infinite normal forwards running breath-18705ce0-d1a4-4b8d-b559-0d782b2d579e;"><path d="M17.86 0L2.69-65.47L10.85-65.47L23.52-7.68L23.62-7.68L40.42-65.47L50.59-65.47L67.20-7.68L67.30-7.68L79.87-65.47L88.03-65.47L72.96 0L62.78 0L45.50-57.70L45.41-57.70L28.03 0L17.86 0" fill="#51cacc" stroke="none" stroke-width="none" transform="translate(-132.24002075195312,26.839938616071425)" style="fill: rgb(81, 202, 204);"></path></g><g class="path" style="transform: scale(0.91); transform-origin: -15.985px 2.83994px; animation: 1s linear -0.471429s infinite normal forwards running breath-18705ce0-d1a4-4b8d-b559-0d782b2d579e;"><path d="M101.09-23.90L101.09-23.90L101.09-23.90Q101.09-14.59 105.26-10.03L105.26-10.03L105.26-10.03Q109.44-5.47 116.54-5.47L116.54-5.47L116.54-5.47Q123.55-5.47 127.49-9.98L127.49-9.98L127.49-9.98Q131.42-14.50 131.42-23.52L131.42-23.52L131.42-23.52Q131.42-33.12 127.25-37.82L127.25-37.82L127.25-37.82Q123.07-42.53 115.87-42.53L115.87-42.53L115.87-42.53Q108.67-42.53 104.88-37.87L104.88-37.87L104.88-37.87Q101.09-33.22 101.09-23.90zM92.93-24L92.93-24L92.93-24Q92.93-31.30 95.23-36.14L95.23-36.14L95.23-36.14Q97.54-40.99 101.09-43.92L101.09-43.92L101.09-43.92Q104.64-46.85 108.72-48.05L108.72-48.05L108.72-48.05Q112.80-49.25 116.45-49.25L116.45-49.25L116.45-49.25Q119.90-49.25 123.98-48.14L123.98-48.14L123.98-48.14Q128.06-47.04 131.52-44.21L131.52-44.21L131.52-44.21Q134.98-41.38 137.28-36.62L137.28-36.62L137.28-36.62Q139.58-31.87 139.58-24.58L139.58-24.58L139.58-24.58Q139.58-16.99 137.23-12L137.23-12L137.23-12Q134.88-7.01 131.33-4.08L131.33-4.08L131.33-4.08Q127.78-1.15 123.65 0.05L123.65 0.05L123.65 0.05Q119.52 1.25 115.97 1.25L115.97 1.25L115.97 1.25Q112.32 1.25 108.29 0.10L108.29 0.10L108.29 0.10Q104.26-1.06 100.85-3.89L100.85-3.89L100.85-3.89Q97.44-6.72 95.18-11.62L95.18-11.62L95.18-11.62Q92.93-16.51 92.93-24" fill="#51cacc" stroke="none" stroke-width="none" transform="translate(-132.24002075195312,26.839938616071425)" style="fill: rgb(81, 202, 204);"></path></g><g class="path" style="transform: scale(0.91); transform-origin: 30.24px 2.2088px; animation: 1s linear -0.377143s infinite normal forwards running breath-18705ce0-d1a4-4b8d-b559-0d782b2d579e;"><path d="M150.82 0L150.82-40.51L150.82-40.51Q150.82-42.72 150.34-47.42L150.34-47.42L157.44-48.38L158.21-41.38L158.30-41.38L158.30-41.38Q160.03-43.58 161.66-45.22L161.66-45.22L161.66-45.22Q163.30-46.85 165.07-48.05L165.07-48.05L165.07-48.05Q166.85-49.25 168.48-49.25L168.48-49.25L168.48-49.25Q170.69-49.34 174.62-48.77L174.62-48.77L172.90-41.38L172.90-41.38Q169.73-41.95 168.48-41.86L168.48-41.86L168.48-41.86Q166.85-41.86 165.02-40.32L165.02-40.32L165.02-40.32Q163.20-38.78 161.86-37.06L161.86-37.06L161.86-37.06Q160.13-34.94 158.50-32.26L158.50-32.26L158.50 0L150.82 0" fill="#51cacc" stroke="none" stroke-width="none" transform="translate(-132.24002075195312,26.839938616071425)" style="fill: rgb(81, 202, 204);"></path></g><g class="path" style="transform: scale(0.91); transform-origin: 54.67px -9.54506px; animation: 1s linear -0.282857s infinite normal forwards running breath-18705ce0-d1a4-4b8d-b559-0d782b2d579e;"><path d="M183.07 0L183.07-71.90L190.75-72.77L190.75 0L183.07 0" fill="#51cacc" stroke="none" stroke-width="none" transform="translate(-132.24002075195312,26.839938616071425)" style="fill: rgb(81, 202, 204);"></path></g><g class="path" style="transform: scale(0.91); transform-origin: 90.24px -8.92006px; animation: 1s linear -0.188571s infinite normal forwards running breath-18705ce0-d1a4-4b8d-b559-0d782b2d579e;"><path d="M234.72-10.56L234.72-41.09L234.72-41.09Q231.26-42.05 229.34-42.29L229.34-42.29L229.34-42.29Q227.42-42.53 225.41-42.53L225.41-42.53L225.41-42.53Q221.38-42.53 218.50-41.09L218.50-41.09L218.50-41.09Q215.62-39.65 213.74-37.10L213.74-37.10L213.74-37.10Q211.87-34.56 211.01-31.25L211.01-31.25L211.01-31.25Q210.14-27.94 210.14-24.19L210.14-24.19L210.14-24.19Q210.14-20.83 210.86-17.47L210.86-17.47L210.86-17.47Q211.58-14.11 213.12-11.42L213.12-11.42L213.12-11.42Q214.66-8.74 216.86-7.10L216.86-7.10L216.86-7.10Q219.07-5.47 222.14-5.47L222.14-5.47L222.14-5.47Q224.26-5.47 226.51-6.24L226.51-6.24L226.51-6.24Q228.77-7.01 230.69-8.02L230.69-8.02L230.69-8.02Q232.61-9.02 234.72-10.56L234.72-10.56zM235.58 0.77L234.82-3.84L234.82-3.84Q232.61-2.30 230.54-1.30L230.54-1.30L230.54-1.30Q228.48-0.29 226.03 0.48L226.03 0.48L226.03 0.48Q223.58 1.25 221.28 1.25L221.28 1.25L221.28 1.25Q212.26 1.25 207.12-5.14L207.12-5.14L207.12-5.14Q201.98-11.52 201.98-23.81L201.98-23.81L201.98-23.81Q201.98-31.10 204.34-36L204.34-36L204.34-36Q206.69-40.90 210.24-43.82L210.24-43.82L210.24-43.82Q213.79-46.75 217.87-48L217.87-48L217.87-48Q221.95-49.25 225.41-49.25L225.41-49.25L225.41-49.25Q227.14-49.25 229.06-49.01L229.06-49.01L229.06-49.01Q230.98-48.77 234.72-47.81L234.72-47.81L234.72-71.90L242.40-72.77L242.40-8.74L242.40-8.74Q242.40-7.39 242.45-5.90L242.45-5.90L242.45-5.90Q242.50-4.42 242.64-2.98L242.64-2.98L242.64-2.98Q242.78-1.54 242.98 0L242.98 0L235.58 0.77" fill="#51cacc" stroke="none" stroke-width="none" transform="translate(-132.24002075195312,26.839938616071425)" style="fill: rgb(81, 202, 204);"></path></g><g class="path" style="transform: scale(0.91); transform-origin: 129.075px -17.3651px; animation: 1s linear -0.0942857s infinite normal forwards running breath-18705ce0-d1a4-4b8d-b559-0d782b2d579e;"><path d="M258.34-17.47L256.42-69.89L266.21-70.94L264.58-17.47L258.34-17.47" fill="#51cacc" stroke="none" stroke-width="none" transform="translate(-132.24002075195312,26.839938616071425)" style="fill: rgb(81, 202, 204);"></path></g><g class="path" style="transform: scale(0.91); transform-origin: 129.12px 21.1749px; animation: 1s linear 0s infinite normal forwards running breath-18705ce0-d1a4-4b8d-b559-0d782b2d579e;"><path d="M255.55-5.66L255.55-5.66L255.55-5.66Q255.55-7.97 257.18-9.65L257.18-9.65L257.18-9.65Q258.82-11.33 261.22-11.33L261.22-11.33L261.22-11.33Q263.71-11.33 265.44-9.65L265.44-9.65L265.44-9.65Q267.17-7.97 267.17-5.66L267.17-5.66L267.17-5.66Q267.17-3.26 265.44-1.63L265.44-1.63L265.44-1.63Q263.71 0 261.22 0L261.22 0L261.22 0Q258.82 0 257.18-1.63L257.18-1.63L257.18-1.63Q255.55-3.26 255.55-5.66" fill="#51cacc" stroke="none" stroke-width="none" transform="translate(-132.24002075195312,26.839938616071425)" style="fill: rgb(81, 202, 204);"></path></g></g>
</g>
</g>
<style id="breath-18705ce0-d1a4-4b8d-b559-0d782b2d579e" data-anikit="">@keyframes breath-18705ce0-d1a4-4b8d-b559-0d782b2d579e
{
  0% {
    animation-timing-function: cubic-bezier(0.9647,0.2413,-0.0705,0.7911);
    transform: scale(0.9099999999999999);
  }
  51% {
    animation-timing-function: cubic-bezier(0.9226,0.2631,-0.0308,0.7628);
    transform: scale(1.02994);
  }
  100% {
    transform: scale(0.9099999999999999);
  }
}</style></svg>